<?xml version="1.0" encoding="utf-8"?>
<!-- Generator: Adobe Illustrator 26.0.1, SVG Export Plug-In . SVG Version: 6.00 Build 0)  -->
<svg version="1.1" id="Layer_1" xmlns="http://www.w3.org/2000/svg" xmlns:xlink="http://www.w3.org/1999/xlink" x="0px" y="0px"
	 viewBox="0 0 215.5 151.1" style="enable-background:new 0 0 215.5 151.1;" xml:space="preserve">
<g>
	<g>
		<circle cx="62.2" cy="77.1" r="26.2"/>
		<g>
			<path d="M85.9,77.1c-0.1,9.8-6.3,19-15.6,22.3c-9.5,3.3-20,0.4-26.4-7.3c-6.3-7.6-6.9-18.8-1.9-27.1c5-8.4,15.1-12.9,24.7-11
				C77.7,56,85.8,65.8,85.9,77.1c0,3.2,5,3.2,5,0c-0.1-12-7.6-22.7-18.8-26.9c-11.1-4.2-24.3-0.6-31.9,8.6
				c-7.6,9.3-8.8,22.7-2.6,33.1c6.2,10.3,18.4,15.6,30.2,13.3c11.5-2.2,20.9-11.9,22.6-23.5c0.2-1.5,0.4-3.1,0.4-4.6
				C90.9,73.8,85.9,73.8,85.9,77.1z"/>
		</g>
	</g>
	<g>
		<circle cx="154.2" cy="77.1" r="26.2"/>
		<g>
			<path d="M177.9,77.1c-0.1,9.8-6.3,19-15.6,22.3c-9.5,3.3-20,0.4-26.4-7.3c-6.3-7.6-6.9-18.8-1.9-27.1c5-8.4,15.1-12.9,24.7-11
				C169.7,56,177.8,65.8,177.9,77.1c0,3.2,5,3.2,5,0c-0.1-12-7.6-22.7-18.8-26.9c-11.1-4.2-24.3-0.6-31.9,8.6
				c-7.6,9.3-8.8,22.7-2.6,33.1c6.2,10.3,18.4,15.6,30.2,13.3c11.5-2.2,20.9-11.9,22.6-23.5c0.2-1.5,0.4-3.1,0.4-4.6
				C182.9,73.8,177.9,73.8,177.9,77.1z"/>
		</g>
	</g>
	<g>
		<path d="M210.3,73.4V11.7c0-3.5-2.8-6.4-6.3-6.4h-3.1c-3.3,0-6,2.7-6,6v25.6c-10.2-10.6-24.4-17.1-40.2-17.1
			c-19.7,0-37,10.2-46.9,25.7c-0.2-0.2-0.3-0.5-0.4-0.7c-11-16.6-30.6-27-52.4-24.7c-26,2.7-47,23.8-49.6,49.9
			c-2.9,29.7,17.5,55.2,45,60.4c3.4,0.7,6.9,1,10.5,1c0,0,0,0,0.1,0c0.5,0,1,0,1.5,0h0.5l23.9,0.1v8.6c0,3.7,3,6.7,6.7,6.7h1.4
			c3.1,0,5.7-2.6,5.7-5.7v-17.8c0-3.9-3.1-7-7-7H60.7c-17.4,0-33.4-11-38.6-27.6C13.4,60.6,34,35,60.7,35
			c18.7,0,34.5,12.7,39.1,29.8c-0.7,3.5-1,7.1-1,10.8c0,10.1,2.7,19.5,7.3,27.6c5.7,10,14.4,18,24.9,22.9c0.4,0.2,0.8,0.4,1.2,0.5
			c6.4,2.8,13.5,4.5,20.9,4.6c0.7,0,1.4,0,2,0c0.8,0,1.7,0,2.5-0.1c29.4-1.6,52.7-25.9,52.7-55.7C210.3,74.8,210.3,74.1,210.3,73.4z
			 M177,109.1c-0.1,0.1-0.2,0.2-0.3,0.2c-6.4,4.3-14.2,6.8-22.5,6.8c-14.2,0-26.8-7.3-34-18.4c-2.1-3.3-3.8-6.9-4.9-10.7
			c-1.1-3.6-1.7-7.5-1.7-11.4s0.6-7.8,1.7-11.5c4.9-16.8,20.5-29.1,38.9-29.1c22.4,0,40.6,18.2,40.6,40.6
			C194.8,89.5,187.7,101.8,177,109.1z"/>
		<g>
			<path d="M212.8,73.4c0-5.1,0-10.1,0-15.2c0-9.6,0-19.2,0-28.9c0-5.8,0.1-11.7,0-17.5c0-2.5-1-5-2.8-6.7c-2.4-2.2-5.3-2.4-8.4-2.4
				c-3.4,0-6.5,1.3-8.2,4.4c-0.9,1.6-1.1,3.4-1.1,5.2c0,8,0,15.9,0,23.9c0,0.2,0,0.5,0,0.7c1.4-0.6,2.8-1.2,4.3-1.8
				c-9.9-10.2-23.2-16.5-37.3-17.7c-13.5-1.1-27.4,2.7-38.5,10.6c-6.1,4.4-11.3,9.8-15.3,16.1c1.4,0,2.9,0,4.3,0
				C98.8,27,79,16.6,58.7,17.3c-19.1,0.7-36.9,10.9-47.2,27C1.1,60.6-0.3,81.3,7.3,98.9c7.3,16.9,22.9,29.7,40.9,33.6
				c6.6,1.4,13.2,1.3,19.9,1.3c5.8,0,11.6,0,17.3,0.1c0.4,0,0.8,0,1.3,0c-0.8-0.8-1.7-1.7-2.5-2.5c0,2.8-0.1,5.7,0,8.5
				c0.1,2.7,1.1,5.3,3.2,7c2.1,1.8,4.6,2.3,7.3,2.3c3,0,5.7-1.5,7.2-4.1c0.9-1.5,1.1-3.1,1.1-4.8c0-3.3,0-6.6,0-9.9
				c0-2.6,0.2-5.3,0-7.9c-0.4-5.1-4.7-8.7-9.7-8.8c-6.1,0-12.1,0-18.2,0c-5.6,0-11.2,0.3-16.8-0.1c-10.8-0.7-21.3-6.1-27.9-14.7
				c-6.6-8.7-9.1-20.5-6.8-31.1c2.1-9.8,8-18.6,16.4-24.1c8.9-5.8,20.1-7.7,30.4-5c10.4,2.7,19.3,9.8,24.2,19.4
				c1.2,2.4,2.2,4.8,2.9,7.4c0-0.4,0-0.9,0-1.3c-2.7,14.7-0.1,30,8,42.7c7.3,11.4,18.6,20.1,31.5,24.3c12.4,4,26.2,3.6,38.3-1
				c10.5-4,19.6-11,26.4-20.1c3.7-5.1,6.6-10.8,8.5-16.8C212.1,86.9,213.2,80,212.8,73.4c-0.1-1.3-1.1-2.5-2.5-2.5
				c-1.3,0-2.6,1.1-2.5,2.5c1.1,16-6.4,32.1-18.4,42.5c-12.9,11.2-31,15.5-47.6,11.4c-19-4.7-34.3-19.9-39-38.9
				c-1.3-5.1-1.7-10.4-1.5-15.7c0.1-1.4,0.2-2.8,0.4-4.2c0.2-1.3,0.8-3,0.5-4.3c-0.4-2.1-1.4-4.2-2.2-6.1
				c-3.4-7.7-9.1-14.2-16.2-18.8c-14.2-9.1-33.2-8.9-47.2,0.6c-6.5,4.4-11.9,10.6-15.1,17.8c-3.5,7.7-4.6,16.1-3.4,24.4
				c1.2,8.7,5,16.9,11.1,23.2c5.9,6.2,13.7,10.5,22,12.3c4.7,1,9.3,1,14,1c5.6,0,11.1,0,16.7,0c3.8,0,7.6-0.1,11.4,0
				c2.5,0,4.5,1.9,4.6,4.5c0,1.6,0,3.2,0,4.8c0,2.9,0,5.7,0,8.6c0,1.6,0.2,3.2,0,4.8c-0.3,2.9-4,3.5-6.2,2.5c-2.6-1.1-2.5-3.6-2.5-6
				c0-2.1,0-4.3,0-6.4c0-1.4-1.1-2.5-2.5-2.5c-8.9,0-17.8,0-26.7-0.1c-18.1-0.2-35.1-9.9-44.6-25.3c-9.2-14.9-10.5-34-3.2-49.9
				C19.5,37.7,34.3,26.1,51.6,23c18.6-3.3,37.8,4,49.9,18.3c1.4,1.7,2.7,3.5,3.9,5.4c1,1.6,3.3,1.6,4.3,0
				c6.5-10.1,16.4-17.9,27.9-21.7c12.2-4.1,25.8-3.6,37.7,1.5c6.7,2.8,12.6,7,17.7,12.2c1.5,1.6,4.3,0.4,4.3-1.8
				c0-7.2,0-14.4,0-21.6c0-2.6-0.7-6.4,2.5-7.4c0.9-0.3,1.9-0.1,2.8-0.1c0.9,0,1.8-0.1,2.7,0.2c1.6,0.6,2.5,2.1,2.5,3.8
				c0,5.5,0,10.9,0,16.4c0,9.3,0,18.6,0,27.9c0,5.7-0.2,11.4,0,17c0,0.1,0,0.2,0,0.3C207.8,76.6,212.8,76.6,212.8,73.4z"/>
			<path d="M175.7,107c-3.8,2.4-7.7,4.4-12.1,5.5c-4.2,1.1-8.6,1.4-13,1c-7.7-0.7-15.2-3.8-21.1-8.8c-6.7-5.7-11.2-13.5-12.9-22.1
				c-1.7-8.7-0.1-18,4.2-25.7c7.4-13.1,21.9-20.6,36.9-19.3c13.9,1.2,26.5,10.7,31.7,23.6c5.8,14.6,2.1,31.5-9.4,42.2
				C178.7,104.8,177.3,105.9,175.7,107c-1.1,0.8-1.6,2.2-0.9,3.4c0.6,1.1,2.3,1.7,3.4,0.9c7.4-5.1,13-12.1,16.2-20.5
				c3.1-8.1,3.6-17.3,1.5-25.8c-3.8-15.4-16.4-27.8-31.9-31.4c-16.7-3.9-34.2,2.6-44.5,16.3c-5.5,7.4-8.5,16.6-8.5,25.9
				c0.1,10.3,3.9,20.3,10.6,28.1c12.4,14.4,33.3,18.7,50.5,10.8c2.1-1,4.1-2.2,6-3.4C181,109.6,178.5,105.2,175.7,107z"/>
		</g>
	</g>
</g>
</svg>
