<svg id="Layer_1" data-name="Layer 1" xmlns="http://www.w3.org/2000/svg" viewBox="0 0 215.4894 151.1489"><defs><style>.cls-1{fill:#27479a;}</style></defs><circle class="cls-1" cx="62.345" cy="76.648" r="26.1554"/><circle class="cls-1" cx="154.3377" cy="76.648" r="26.1554"/><path class="cls-1" d="M210.3987,72.9683V11.2621a6.333,6.333,0,0,0-6.3272-6.3576h-3.1337a6.0438,6.0438,0,0,0-6.026,6.026v25.61a55.7569,55.7569,0,0,0-87.166,8.5268c-.1506-.2109-.2711-.4518-.4219-.6627A55.7731,55.7731,0,1,0,50.3482,129.944a54.1961,54.1961,0,0,0,10.455.9943h.06c.4822,0,.9943,0,1.4763-.03h.5124l23.923.0905v8.5568a6.6674,6.6674,0,0,0,6.6588,6.6889H94.88a5.6837,5.6837,0,0,0,5.6645-5.6946V122.7129a6.9437,6.9437,0,0,0-6.96-6.96H60.8032c-17.4452,0-33.3839-10.9674-38.5664-27.5992-8.6774-27.93,11.9316-53.571,38.5664-53.571a40.5627,40.5627,0,0,1,39.139,29.8286,57.5946,57.5946,0,0,0-1.0245,10.7564,55.2988,55.2988,0,0,0,7.3216,27.6293,56.0806,56.0806,0,0,0,24.8874,22.9289c.4218.1808.8135.3615,1.2052.5423a55.4735,55.4735,0,0,0,20.88,4.64c.6628.03,1.3557.03,2.0187.03.8435,0,1.6872-.03,2.5008-.09a55.75,55.75,0,0,0,52.7275-55.68C210.459,74.4144,210.459,73.6913,210.3987,72.9683Zm-33.2635,35.7642a1.242,1.242,0,0,1-.3315.211,38.774,38.774,0,1,1,.3315-.211Z"/></svg>