<?xml version="1.0" encoding="utf-8"?>
<!-- Generator: Adobe Illustrator 26.0.1, SVG Export Plug-In . SVG Version: 6.00 Build 0)  -->
<svg version="1.1" id="Layer_1" xmlns="http://www.w3.org/2000/svg" xmlns:xlink="http://www.w3.org/1999/xlink" x="0px" y="0px"
	 viewBox="0 0 32 32" style="enable-background:new 0 0 32 32;" xml:space="preserve">
<style type="text/css">
	.st0{fill:#FFFFFF;}
</style>
<g>
	<g>
		<path class="st0" d="M10.7,20.6c-0.3,0.1-0.6,0.1-0.9,0.1c-0.6,0-1.2-0.1-1.7-0.3c0.5,0.2,1,0.2,1.5,0.2H10.7z"/>
	</g>
	<g>
		<path class="st0" d="M13.4,16.2c0,2-1.6,3.6-3.6,3.6c-2,0-3.6-1.6-3.6-3.6c0-2,1.6-3.6,3.6-3.6C11.8,12.6,13.4,14.2,13.4,16.2z"/>
	</g>
	<g>
		<path class="st0" d="M14.3,16.1c0,0.5-0.1,1-0.3,1.5c-0.1-0.6-0.2-1.1-0.2-1.7c0-0.5,0-1,0.1-1.4c0-0.1-0.1-0.2-0.1-0.3
			C14.1,14.8,14.3,15.5,14.3,16.1z"/>
	</g>
	<g>
		<path class="st0" d="M13.4,16.2c0,2-1.6,3.6-3.6,3.6c-2,0-3.6-1.6-3.6-3.6c0-2,1.6-3.6,3.6-3.6C11.8,12.6,13.4,14.2,13.4,16.2z"/>
	</g>
	<g>
		<path class="st0" d="M26.9,16.2c0,0.6-0.1,1.2-0.4,1.8c0,0.1-0.1,0.2-0.1,0.3c-0.7,1.5-2.3,2.5-4,2.5c-1.6,0-3.1-0.9-3.9-2.2
			c0,0,0,0,0,0c0-0.1-0.1-0.2-0.1-0.2c-0.3-0.6-0.5-1.3-0.5-2.1c0-2.5,2-4.5,4.5-4.5C24.9,11.6,26.9,13.7,26.9,16.2z"/>
	</g>
	<g>
		<circle class="st0" cx="22.4" cy="16.1" r="3.6"/>
	</g>
	<g>
		<path class="st0" d="M25,19.8L25,19.8c-0.8,0.5-1.7,0.8-2.6,0.8c-1.5,0-2.9-0.7-3.8-2c0,0-0.1-0.1-0.1-0.1
			c0.1,0.2,0.2,0.3,0.3,0.5c0.8,1,2.1,1.7,3.5,1.7c1.8,0,3.3-1,4-2.5C26.1,18.8,25.6,19.3,25,19.8z M25,19.8L25,19.8
			c-0.8,0.5-1.7,0.8-2.6,0.8c-1.5,0-2.9-0.7-3.8-2c0,0-0.1-0.1-0.1-0.1c0.1,0.2,0.2,0.3,0.3,0.5c0.8,1,2.1,1.7,3.5,1.7
			c1.8,0,3.3-1,4-2.5C26.1,18.8,25.6,19.3,25,19.8z M30.1,15.6V7.2c0-0.5-0.4-0.9-0.9-0.9h-0.4c-0.5,0-0.8,0.4-0.8,0.8v3.5
			c-1.4-1.4-3.4-2.3-5.5-2.3c-2.7,0-5.1,1.4-6.4,3.5c0,0,0-0.1-0.1-0.1C14.4,9.5,11.7,8,8.8,8.3C5.2,8.7,2.3,11.6,2,15.2
			c-0.4,4.1,2.4,7.6,6.2,8.3c0.5,0.1,0.9,0.1,1.4,0.1c0,0,0,0,0,0c0.1,0,0.1,0,0.2,0h0.1l3.3,0v1.2c0,0.5,0.4,0.9,0.9,0.9h0.2
			c0.4,0,0.8-0.3,0.8-0.8v-2.4c0-0.5-0.4-1-1-1H9.6c-2.4,0-4.6-1.5-5.3-3.8c-1.2-3.8,1.6-7.3,5.3-7.3c2.6,0,4.7,1.7,5.4,4.1
			c-0.1,0.5-0.1,1-0.1,1.5c0,1.4,0.4,2.7,1,3.8c0.8,1.4,2,2.5,3.4,3.2c0.1,0,0.1,0,0.2,0.1c0.9,0.4,1.8,0.6,2.9,0.6
			c0.1,0,0.2,0,0.3,0c0.1,0,0.2,0,0.3,0c4-0.2,7.2-3.5,7.2-7.6C30.1,15.8,30.1,15.8,30.1,15.6z M25.5,20.5
			C25.5,20.6,25.5,20.6,25.5,20.5c-0.9,0.6-2,1-3.1,1c-2,0-3.7-1-4.7-2.5c-0.3-0.5-0.5-1-0.7-1.5c-0.1-0.5-0.2-1-0.2-1.6
			c0-0.5,0.1-1.1,0.2-1.6c0.7-2.3,2.8-4,5.3-4c3.1,0,5.6,2.5,5.6,5.6C28,17.9,27,19.5,25.5,20.5z M25,19.8L25,19.8
			c-0.8,0.5-1.7,0.8-2.6,0.8c-1.5,0-2.9-0.7-3.8-2c0,0-0.1-0.1-0.1-0.1c0.1,0.2,0.2,0.3,0.3,0.5c0.8,1,2.1,1.7,3.5,1.7
			c1.8,0,3.3-1,4-2.5C26.1,18.8,25.6,19.3,25,19.8z M14,17.7c0.2-0.5,0.3-1,0.3-1.5c0-0.7-0.2-1.3-0.4-1.9c0,0.1,0.1,0.2,0.1,0.3
			c-0.1,0.5-0.1,0.9-0.1,1.4C13.8,16.5,13.9,17.1,14,17.7z M8.1,20.3c0.5,0.2,1.1,0.3,1.7,0.3c0.3,0,0.6,0,0.9-0.1H9.6
			C9.1,20.6,8.6,20.5,8.1,20.3z M25,19.8L25,19.8c-0.8,0.5-1.7,0.8-2.6,0.8c-1.5,0-2.9-0.7-3.8-2c0,0-0.1-0.1-0.1-0.1
			c0.1,0.2,0.2,0.3,0.3,0.5c0.8,1,2.1,1.7,3.5,1.7c1.8,0,3.3-1,4-2.5C26.1,18.8,25.6,19.3,25,19.8z M25,19.8L25,19.8
			c-0.8,0.5-1.7,0.8-2.6,0.8c-1.5,0-2.9-0.7-3.8-2c0,0-0.1-0.1-0.1-0.1c0.1,0.2,0.2,0.3,0.3,0.5c0.8,1,2.1,1.7,3.5,1.7
			c1.8,0,3.3-1,4-2.5C26.1,18.8,25.6,19.3,25,19.8z"/>
	</g>
	<g>
		<path class="st0" d="M30.1,15.6V7.2c0-0.5-0.4-0.9-0.9-0.9h-0.4c-0.5,0-0.8,0.4-0.8,0.8v3.5c-1.4-1.4-3.4-2.3-5.5-2.3
			c-2.7,0-5.1,1.4-6.4,3.5c0,0,0-0.1-0.1-0.1C14.4,9.5,11.7,8,8.8,8.3C5.2,8.7,2.3,11.6,2,15.2c-0.4,4.1,2.4,7.6,6.2,8.3
			c0.5,0.1,0.9,0.1,1.4,0.1c0,0,0,0,0,0c0.1,0,0.1,0,0.2,0h0.1l3.3,0v1.2c0,0.5,0.4,0.9,0.9,0.9h0.2c0.4,0,0.8-0.3,0.8-0.8v-2.4
			c0-0.5-0.4-1-1-1H9.6c-2.4,0-4.6-1.5-5.3-3.8c-1.2-3.8,1.6-7.3,5.3-7.3c2.6,0,4.7,1.7,5.4,4.1c-0.1,0.5-0.1,1-0.1,1.5
			c0,1.4,0.4,2.7,1,3.8c0.8,1.4,2,2.5,3.4,3.2c0.1,0,0.1,0,0.2,0.1c0.9,0.4,1.8,0.6,2.9,0.6c0.1,0,0.2,0,0.3,0c0.1,0,0.2,0,0.3,0
			c4-0.2,7.2-3.5,7.2-7.6C30.1,15.8,30.1,15.8,30.1,15.6z M25.5,20.5C25.5,20.6,25.5,20.6,25.5,20.5c-0.9,0.6-2,1-3.1,1
			c-2,0-3.7-1-4.7-2.5c-0.3-0.5-0.5-1-0.7-1.5c-0.1-0.5-0.2-1-0.2-1.6c0-0.5,0.1-1.1,0.2-1.6c0.7-2.3,2.8-4,5.3-4
			c3.1,0,5.6,2.5,5.6,5.6C28,17.9,27,19.5,25.5,20.5z"/>
	</g>
</g>
<g>
</g>
<g>
</g>
<g>
</g>
<g>
</g>
<g>
</g>
<g>
</g>
</svg>
