<svg id="Layer_1" data-name="Layer 1" xmlns="http://www.w3.org/2000/svg" viewBox="0 0 64 64"><defs><style>.cls-1{fill:#fff;}</style></defs><circle class="cls-1" cx="18.0955" cy="32.3288" r="8.0106"/><circle class="cls-1" cx="46.27" cy="32.3288" r="8.0106"/><path class="cls-1" d="M63.44,31.2018V12.3031a1.94,1.94,0,0,0-1.9378-1.9471h-.96a1.851,1.851,0,0,0-1.8455,1.8456v7.8437A17.0766,17.0766,0,0,0,32,22.6568c-.0461-.0646-.083-.1384-.1292-.203a17.0815,17.0815,0,1,0-17.45,26.1979,16.6021,16.6021,0,0,0,3.2021.3045h.0185c.1476,0,.3045,0,.4521-.0092h.1569l7.3269.0277v2.6207a2.0421,2.0421,0,0,0,2.0394,2.0486H28.06A1.7408,1.7408,0,0,0,29.7949,51.9V46.437a2.1266,2.1266,0,0,0-2.1317-2.1316h-10.04A12.2992,12.2992,0,0,1,5.8116,35.8526,12.447,12.447,0,1,1,29.61,28.5811a17.6432,17.6432,0,0,0-.3137,3.2943,16.9363,16.9363,0,0,0,2.2423,8.462A17.1758,17.1758,0,0,0,39.1612,47.36c.1292.0554.2491.1107.3691.1661a16.99,16.99,0,0,0,6.3949,1.4211c.203.0092.4152.0092.6183.0092.2583,0,.5167-.0092.7659-.0276A17.0746,17.0746,0,0,0,63.4582,31.8754C63.4582,31.6447,63.4582,31.4233,63.44,31.2018ZM53.2521,42.1553a.3822.3822,0,0,1-.1015.0646,11.8747,11.8747,0,1,1,.1015-.0646Z"/></svg>