<svg id="Layer_1" data-name="Layer 1" xmlns="http://www.w3.org/2000/svg" viewBox="0 0 32 32"><circle cx="16" cy="16" r="16" style="fill:#231f20"/><circle cx="9" cy="17.2" r="3.4" style="fill:#fff"/><circle cx="21.1" cy="17.2" r="3.4" style="fill:#fff"/><path d="M28.5,16.7V8.6a.9.9,0,0,0-.9-.9h-.4a.9.9,0,0,0-.8.8v3.4a7.2,7.2,0,0,0-5.3-2.2A7.5,7.5,0,0,0,14.9,13h0A7.5,7.5,0,0,0,8,9.7a7.4,7.4,0,0,0-6.6,6.6,7.3,7.3,0,0,0,6,7.9l1.4.2h3.4v1.1a.9.9,0,0,0,.9.9h.1a.7.7,0,0,0,.8-.8V23.3a.9.9,0,0,0-.9-.9H8.8a5.4,5.4,0,1,1,5.1-6.8,6.6,6.6,0,0,0-.1,1.4,7.8,7.8,0,0,0,.9,3.7,8,8,0,0,0,3.3,3h.2a11.8,11.8,0,0,0,2.7.6h.6a7.4,7.4,0,0,0,7-7.4Zm-4.4,4.7h0a6.2,6.2,0,0,1-3,.9,5.4,5.4,0,0,1-4.5-2.5,3.5,3.5,0,0,1-.6-1.4,3.9,3.9,0,0,1,0-3,5.3,5.3,0,0,1,5.1-3.8A5.3,5.3,0,0,1,26.4,17,5.1,5.1,0,0,1,24.1,21.4Z" style="fill:#fff"/></svg>